<svg width="24" height="21" viewBox="0 0 24 21" fill="none" xmlns="http://www.w3.org/2000/svg">
<path d="M9.49731 16.6855H9.28619L9.11028 16.8022L4.75012 19.6954V17.3855V16.6855H4.05012H1C0.834314 16.6855 0.7 16.5512 0.7 16.3855V3.99999C0.7 3.8343 0.834316 3.69998 1 3.69998H20C20.1657 3.69998 20.3 3.8343 20.3 3.99998V16.3855C20.3 16.5512 20.1657 16.6855 20 16.6855H9.49731Z" stroke="white" stroke-width="1.4"/>
<path d="M4.69999 4.21405H3.29999V1.99999C3.29999 1.0611 4.0611 0.299988 4.99999 0.299988H22.0516C22.9905 0.299988 23.7516 1.0611 23.7516 1.99999V12.4098C23.7516 13.3487 22.9905 14.1098 22.0516 14.1098H19.7783V12.7098H22.0516C22.2173 12.7098 22.3516 12.5755 22.3516 12.4098V1.99999C22.3516 1.8343 22.2173 1.69999 22.0516 1.69999H4.99999C4.8343 1.69999 4.69999 1.8343 4.69999 1.99999V4.21405Z" fill="white"/>
<rect x="3" y="6.99998" width="12" height="1" rx="0.5" fill="white"/>
<rect x="3" y="9.99998" width="10" height="1" rx="0.5" fill="white"/>
<rect x="3" y="13" width="11" height="1" rx="0.5" fill="white"/>
</svg>
