<svg width="21" height="21" viewBox="0 0 21 21" fill="none" xmlns="http://www.w3.org/2000/svg">
<path fill-rule="evenodd" clip-rule="evenodd" d="M7.08698 8.8261C7.08698 6.90511 8.64425 5.34784 10.5652 5.34784C12.4862 5.34784 14.0435 6.90511 14.0435 8.8261C14.0435 10.7471 12.4862 12.3044 10.5652 12.3044C8.64425 12.3044 7.08698 10.7471 7.08698 8.8261ZM8.47828 8.8261C8.47828 9.97869 9.41264 10.9131 10.5652 10.9131C11.7178 10.9131 12.6522 9.97869 12.6522 8.8261C12.6522 7.67351 11.7178 6.73914 10.5652 6.73914C9.41264 6.73914 8.47828 7.67351 8.47828 8.8261Z" fill="white"/>
<path fill-rule="evenodd" clip-rule="evenodd" d="M10.5 0C4.70101 0 0 4.70101 0 10.5C0 16.299 4.70101 21 10.5 21C16.299 21 21 16.299 21 10.5C21 4.70101 16.299 0 10.5 0ZM5.4 17.91C5.49443 17.6339 5.60461 17.3635 5.73 17.1C6.6745 15.3212 8.53493 14.2204 10.5487 14.2489C12.5625 14.2773 14.3911 15.4302 15.285 17.235C15.39 17.46 15.48 17.7 15.57 17.94C14.0727 18.9525 12.3075 19.4956 10.5 19.5C8.67826 19.4984 6.8999 18.9439 5.4 17.91ZM16.6239 16.5638C16.6943 16.6896 16.77 16.8249 16.77 16.935L16.845 16.92C19.465 14.3638 20.2759 10.4755 18.896 7.08523C17.5161 3.69492 14.2204 1.47805 10.56 1.47805C6.89963 1.47805 3.60389 3.69492 2.22401 7.08523C0.844121 10.4755 1.65501 14.3638 4.275 16.92C4.33444 16.7339 4.40971 16.5532 4.5 16.38C5.71751 14.1565 8.06274 12.7864 10.5976 12.8178C13.1324 12.8492 15.443 14.277 16.605 16.53C16.6112 16.5412 16.6175 16.5524 16.6239 16.5638Z" fill="white"/>
</svg>
