<svg width="22" height="22" viewBox="0 0 22 22" fill="none" xmlns="http://www.w3.org/2000/svg">
<path fill-rule="evenodd" clip-rule="evenodd" d="M1.9631 1.412C1.6521 1.412 1.4001 1.671 1.4001 1.99V6.184C1.4001 6.503 1.6521 6.763 1.9631 6.763H19.7371C20.0471 6.763 20.3001 6.503 20.3001 6.184V1.99C20.3001 1.671 20.0471 1.412 19.7371 1.412H1.9631ZM1.9631 8.175C1.6521 8.175 1.4001 8.434 1.4001 8.753V12.947C1.4001 13.266 1.6521 13.525 1.9631 13.525H19.7371C20.0471 13.525 20.3001 13.266 20.3001 12.947V8.753C20.3001 8.434 20.0471 8.175 19.7371 8.175H1.9631ZM1.9631 14.937C1.6521 14.937 1.4001 15.197 1.4001 15.516V19.71C1.4001 20.029 1.6521 20.288 1.9631 20.288H19.7371C20.0471 20.288 20.3001 20.029 20.3001 19.71V15.516C20.3001 15.197 20.0471 14.937 19.7371 14.937H1.9631ZM19.7371 21.7H1.9631C1.4611 21.7 0.772103 21.7 0.376103 21.294C-0.000897407 20.907 0.000102598 20.273 0.000102598 19.764V15.516C0.000102598 15.04 0.169103 14.589 0.472103 14.231C0.169103 13.874 0.000102598 13.423 0.000102598 12.947V8.753C0.000102598 8.277 0.169103 7.826 0.472103 7.469C0.169103 7.111 0.000102598 6.66 0.000102598 6.184V1.99C-0.000897402 1.455 -0.00189742 0.871 0.377103 0.486C0.793103 0.063 1.5491 0 1.9631 0H19.7371C20.1541 0 20.9321 0 21.3571 0.507C21.6591 0.869 21.7001 1.46 21.7001 1.99V6.184C21.7001 6.66 21.5321 7.112 21.2291 7.469C21.5321 7.826 21.7001 8.278 21.7001 8.753V12.947C21.7001 13.423 21.5311 13.874 21.2281 14.232C21.5311 14.589 21.7001 15.04 21.7001 15.516V19.71C21.7001 20.113 21.7001 20.723 21.3531 21.122C20.9001 21.644 20.0721 21.7 19.7371 21.7Z" fill="white"/>
<path fill-rule="evenodd" clip-rule="evenodd" d="M4 5C4.55228 5 5 4.55228 5 4C5 3.44772 4.55228 3 4 3C3.44772 3 3 3.44772 3 4C3 4.55228 3.44772 5 4 5Z" stroke="white"/>
<path fill-rule="evenodd" clip-rule="evenodd" d="M4 12C4.55228 12 5 11.5523 5 11C5 10.4477 4.55228 10 4 10C3.44772 10 3 10.4477 3 11C3 11.5523 3.44772 12 4 12Z" stroke="white"/>
<path fill-rule="evenodd" clip-rule="evenodd" d="M4 19C4.55228 19 5 18.5523 5 18C5 17.4477 4.55228 17 4 17C3.44772 17 3 17.4477 3 18C3 18.5523 3.44772 19 4 19Z" stroke="white"/>
<rect x="9" y="3" width="10" height="1" rx="0.5" fill="white"/>
<rect x="9" y="10" width="10" height="1" rx="0.5" fill="white"/>
<rect x="9" y="17" width="10" height="1" rx="0.5" fill="white"/>
</svg>
